# xmcd CD database file
#
# Track frame offsets:
#	150
#	20910
#	38865
#	60390
#	79950
#	100020
#	117945
#	137220
#	152820
#	173220
#
# Disc length: 2525 seconds
#
# Revision: 0
# Processed by: cddbd v1.5.2PL0 Copyright (c) Steve Scherf et al.
# Submitted via: CDex 1.70
#
DISCID=8209db0a
DTITLE=Joep Pelt - Stolen Serenades Volume 1
DYEAR=2011
DGENRE=Blues
TTITLE0=The Seed
TTITLE1=kathleen
TTITLE2=Man In The Long Black Coat
TTITLE3=Heroes
TTITLE4=After Midnight
TTITLE5=Bang Bang
TTITLE6=No One Knows
TTITLE7=Je chanterais
TTITLE8=Low Side Of The Road
TTITLE9=Tennesse Blues
EXTD=YEAR: 2011
EXTT0=
EXTT1=
EXTT2=
EXTT3=
EXTT4=
EXTT5=
EXTT6=
EXTT7=
EXTT8=
EXTT9=
PLAYORDER=
